# xmcd CD database file
#
# Track frame offsets:
#	150
#	24912
#	54357
#	72212
#	105182
#	136820
#	160977
#	173072
#	216090
#	226567
#
# Disc length: 3308 seconds
#
# Revision: 0
# Processed by: cddbd v1.5.2PL0 Copyright (c) Steve Scherf et al.
# Submitted via: CDex 1.70beta2
#
DISCID=6f0cea0a
DTITLE=Joshua Samson - Joshua Samson and Audible Lifestream(1997)
DYEAR=1997
DGENRE=Jazz
TTITLE0=Jimi knows
TTITLE1=Erghen Diado
TTITLE2=De Turnerse Zoekbeweging
TTITLE3=Caribbean shake
TTITLE4=In the meanwhile
TTITLE5=Re-cycling part II
TTITLE6=Two toe's for 3 UDU's
TTITLE7=Hassle me not
TTITLE8=From D to C#
TTITLE9=Ninna Nanna
EXTD=YEAR: 1997
EXTT0=
EXTT1=
EXTT2=
EXTT3=
EXTT4=
EXTT5=
EXTT6=
EXTT7=
EXTT8=
EXTT9=
PLAYORDER=
